<svg width="25" height="24" viewBox="0 0 25 24" fill="none" xmlns="http://www.w3.org/2000/svg">
<path d="M2.5 3H3.79064C4.26829 3 4.50712 3 4.70138 3.08654C4.87264 3.16283 5.019 3.28573 5.12376 3.44121C5.2426 3.61758 5.28391 3.8528 5.36652 4.32326L5.66861 6.04348M5.66861 6.04348L6.37848 10.0858C6.55893 11.1134 6.64916 11.6271 6.91434 11.9974C7.14785 12.3233 7.47394 12.5716 7.85031 12.7099C8.27775 12.867 8.79701 12.8173 9.83554 12.7177L17.9894 11.9363C18.6481 11.8731 18.9774 11.8416 19.2447 11.7344C19.8133 11.5062 20.2459 11.0301 20.4188 10.4424C20.5 10.1661 20.5 9.83525 20.5 9.17351V9.17351C20.5 8.47078 20.5 8.11942 20.4114 7.83169C20.2226 7.21894 19.7515 6.73383 19.1445 6.5272C18.8595 6.43017 18.5083 6.41987 17.8059 6.39928L5.66861 6.04348Z" stroke="white" stroke-width="1.5" stroke-linecap="round" stroke-linejoin="round"/>
<circle cx="9.5" cy="19" r="2" stroke="white" stroke-width="1.2"/>
<circle cx="18.5" cy="19" r="2" stroke="white" stroke-width="1.2"/>
</svg>
