<svg width="50" height="48" viewBox="0 0 50 48" fill="none" xmlns="http://www.w3.org/2000/svg">
<path d="M9.46418 44.3499L9.96491 43.4843C9.73452 43.3511 9.46051 43.3151 9.20355 43.3845L9.46418 44.3499ZM1.42847 46.5L0.482059 46.177C0.362836 46.5264 0.445772 46.913 0.697795 47.1827C0.949819 47.4524 1.32994 47.5614 1.68657 47.4661L1.42847 46.5ZM3.88742 39.3018L4.83354 39.6256C4.9408 39.3122 4.88593 38.966 4.68699 38.7012L3.88742 39.3018ZM30.4349 39.9428L29.5976 39.3962L28.5879 40.9428H30.4349V39.9428ZM38.9285 37.4913L39.1891 36.5259C38.9321 36.4565 38.6581 36.4925 38.4277 36.6257L38.9285 37.4913ZM48.5713 40.0714L48.3132 41.0375C48.6699 41.1328 49.05 41.0239 49.302 40.7542C49.554 40.4844 49.637 40.0978 49.5177 39.7485L48.5713 40.0714ZM45.6206 31.4335L44.821 30.833C44.6221 31.0978 44.5672 31.444 44.6745 31.7574L45.6206 31.4335ZM10.6078 15.9631L9.63937 15.7138L9.08312 17.8744L11.0661 16.8519L10.6078 15.9631ZM11.0773 29.4286C10.5251 29.4286 10.0773 29.8763 10.0773 30.4286C10.0773 30.9809 10.5251 31.4286 11.0773 31.4286V29.4286ZM11.1323 31.4286C11.6846 31.4286 12.1323 30.9809 12.1323 30.4286C12.1323 29.8763 11.6846 29.4286 11.1323 29.4286V31.4286ZM17.4724 29.4121C16.9201 29.4121 16.4724 29.8598 16.4724 30.4121C16.4724 30.9644 16.9201 31.4121 17.4724 31.4121V29.4121ZM17.5274 31.4121C18.0796 31.4121 18.5274 30.9644 18.5274 30.4121C18.5274 29.8598 18.0796 29.4121 17.5274 29.4121V31.4121ZM23.8675 29.3956C23.3152 29.3956 22.8675 29.8433 22.8675 30.3956C22.8675 30.9479 23.3152 31.3956 23.8675 31.3956V29.3956ZM23.9225 31.3956C24.4747 31.3956 24.9225 30.9479 24.9225 30.3956C24.9225 29.8433 24.4747 29.3956 23.9225 29.3956V31.3956ZM32.5713 30.4286C32.5713 38.7523 25.8236 45.5 17.4999 45.5V47.5C26.9282 47.5 34.5713 39.8569 34.5713 30.4286H32.5713ZM2.42847 30.4286C2.42847 22.1049 9.17618 15.3571 17.4999 15.3571V13.3571C8.07161 13.3571 0.428467 21.0003 0.428467 30.4286H2.42847ZM17.4999 15.3571C25.8236 15.3571 32.5713 22.1049 32.5713 30.4286H34.5713C34.5713 21.0003 26.9282 13.3571 17.4999 13.3571V15.3571ZM17.4999 45.5C14.7531 45.5 12.1807 44.7661 9.96491 43.4843L8.96346 45.2155C11.4755 46.6686 14.3921 47.5 17.4999 47.5V45.5ZM9.20355 43.3845C8.61806 43.5425 6.61073 44.0796 4.74778 44.5777C3.81675 44.8267 2.92239 45.0657 2.26079 45.2425C1.92998 45.3309 1.65737 45.4038 1.46747 45.4545C1.37251 45.4799 1.29824 45.4997 1.2477 45.5132C1.22243 45.52 1.20309 45.5251 1.19008 45.5286C1.18357 45.5304 1.17864 45.5317 1.17534 45.5326C1.17369 45.533 1.17244 45.5333 1.17161 45.5335C1.1712 45.5337 1.17088 45.5337 1.17068 45.5338C1.17057 45.5338 1.17049 45.5338 1.17044 45.5339C1.17039 45.5339 1.17036 45.5339 1.42847 46.5C1.68657 47.4661 1.6866 47.4661 1.68665 47.4661C1.6867 47.4661 1.68678 47.4661 1.68688 47.466C1.68709 47.466 1.68741 47.4659 1.68782 47.4658C1.68865 47.4656 1.6899 47.4652 1.69155 47.4648C1.69485 47.4639 1.69979 47.4626 1.7063 47.4608C1.71932 47.4574 1.73866 47.4522 1.76393 47.4454C1.81448 47.4319 1.88877 47.4121 1.98373 47.3867C2.17366 47.336 2.4463 47.2631 2.77713 47.1747C3.43879 46.9979 4.33324 46.7588 5.26439 46.5099C7.12581 46.0122 9.13633 45.4742 9.72481 45.3154L9.20355 43.3845ZM1.42847 46.5C2.37487 46.823 2.37488 46.823 2.37489 46.8229C2.37491 46.8229 2.37492 46.8228 2.37495 46.8228C2.375 46.8226 2.37507 46.8224 2.37517 46.8221C2.37537 46.8215 2.37567 46.8207 2.37606 46.8195C2.37685 46.8172 2.37802 46.8137 2.37958 46.8092C2.3827 46.8001 2.38733 46.7865 2.39341 46.7687C2.40557 46.733 2.42352 46.6804 2.44665 46.6127C2.49292 46.4771 2.55994 46.2808 2.64294 46.0376C2.80894 45.5513 3.03888 44.8777 3.29462 44.1288C3.80614 42.6308 4.42077 40.8315 4.83354 39.6256L2.94131 38.9779C2.52828 40.1846 1.91344 41.9845 1.40193 43.4825C1.14615 44.2315 0.916189 44.9051 0.750168 45.3915C0.667157 45.6347 0.600131 45.8311 0.553858 45.9666C0.530721 46.0344 0.512772 46.087 0.500607 46.1227C0.494525 46.1405 0.489888 46.1541 0.486772 46.1632C0.485214 46.1678 0.484036 46.1712 0.483247 46.1735C0.482853 46.1747 0.482556 46.1756 0.482358 46.1761C0.482259 46.1764 0.482184 46.1767 0.482134 46.1768C0.482109 46.1769 0.482091 46.1769 0.482078 46.177C0.482066 46.177 0.482059 46.177 1.42847 46.5ZM4.68699 38.7012C2.85491 36.2621 2.42847 33.9452 2.42847 30.4286H0.428467C0.428467 34.148 0.884787 36.9693 3.08786 39.9023L4.68699 38.7012ZM49.5713 20.7857C49.5713 9.58222 40.4891 0.5 29.2856 0.5V2.5C39.3845 2.5 47.5713 10.6868 47.5713 20.7857H49.5713ZM30.4349 40.9428C34.1691 40.9428 36.4853 40.0599 39.4292 38.3569L38.4277 36.6257C35.6983 38.2046 33.7263 38.9428 30.4349 38.9428V40.9428ZM38.6678 38.4568C39.3737 38.6473 41.786 39.2928 44.0199 39.8901C45.1372 40.1888 46.2106 40.4757 47.0046 40.6879C47.4016 40.794 47.7287 40.8814 47.9566 40.9423C48.0706 40.9727 48.1597 40.9965 48.2204 41.0127C48.2507 41.0208 48.2739 41.027 48.2896 41.0312C48.2974 41.0333 48.3033 41.0349 48.3072 41.0359C48.3092 41.0365 48.3107 41.0369 48.3117 41.0371C48.3122 41.0373 48.3126 41.0374 48.3128 41.0374C48.313 41.0375 48.3131 41.0375 48.3131 41.0375C48.3132 41.0375 48.3132 41.0375 48.5713 40.0714C48.8294 39.1053 48.8294 39.1053 48.8293 39.1053C48.8293 39.1053 48.8292 39.1052 48.8291 39.1052C48.8288 39.1051 48.8284 39.105 48.8279 39.1049C48.8269 39.1046 48.8254 39.1042 48.8235 39.1037C48.8195 39.1027 48.8136 39.1011 48.8058 39.099C48.7902 39.0948 48.767 39.0886 48.7366 39.0805C48.676 39.0643 48.5868 39.0405 48.4729 39.0101C48.245 38.9492 47.9179 38.8618 47.5209 38.7557C46.727 38.5435 45.6537 38.2567 44.5365 37.9579C42.3011 37.3602 39.892 36.7157 39.1891 36.5259L38.6678 38.4568ZM48.5713 40.0714C49.5177 39.7485 49.5177 39.7484 49.5177 39.7484C49.5177 39.7483 49.5177 39.7483 49.5176 39.7482C49.5176 39.748 49.5175 39.7478 49.5174 39.7474C49.5171 39.7467 49.5168 39.7457 49.5163 39.7443C49.5154 39.7415 49.514 39.7374 49.5121 39.7319C49.5083 39.7209 49.5028 39.7046 49.4955 39.6832C49.4809 39.6405 49.4593 39.5774 49.4316 39.496C49.3761 39.3333 49.2956 39.0977 49.196 38.8058C48.9968 38.2222 48.7208 37.4138 48.4139 36.515C47.8001 34.7174 47.0623 32.5577 46.5667 31.1097L44.6745 31.7574C45.1698 33.2046 45.9074 35.3637 46.5212 37.1613C46.8281 38.0601 47.104 38.8683 47.3032 39.4519C47.4028 39.7437 47.4833 39.9793 47.5388 40.142C47.5665 40.2234 47.5881 40.2865 47.6027 40.3292C47.61 40.3506 47.6155 40.3669 47.6193 40.3778C47.6211 40.3833 47.6226 40.3875 47.6235 40.3902C47.624 40.3916 47.6243 40.3927 47.6246 40.3934C47.6247 40.3937 47.6248 40.394 47.6248 40.3941C47.6249 40.3942 47.6249 40.3943 47.6249 40.3943C47.6249 40.3944 47.6249 40.3944 48.5713 40.0714ZM46.4202 32.0341C49.0267 28.5639 49.5713 25.2287 49.5713 20.7857H47.5713C47.5713 25.0259 47.0566 27.8567 44.821 30.833L46.4202 32.0341ZM29.2856 0.5C19.8324 0.5 11.8917 6.96526 9.63937 15.7138L11.5762 16.2124C13.6066 8.32602 20.767 2.5 29.2856 2.5V0.5ZM11.0661 16.8519C17.2004 13.6889 24.2199 15.6264 28.5418 20.2557C32.8204 24.8386 34.407 32.0286 29.5976 39.3962L31.2723 40.4894C36.6103 32.3123 34.8782 24.1119 30.0037 18.8909C25.1727 13.7162 17.2049 11.4363 10.1495 15.0743L11.0661 16.8519ZM11.0773 31.4286H11.1323V29.4286H11.0773V31.4286ZM17.4724 31.4121H17.5274V29.4121H17.4724V31.4121ZM23.8675 31.3956H23.9225V29.3956H23.8675V31.3956Z" fill="#202632"/>
</svg>
