<svg width="50" height="48" viewBox="0 0 50 48" fill="none" xmlns="http://www.w3.org/2000/svg">
<path d="M20.4116 45.7752L20.9852 46.5943L20.4116 45.7752ZM14.7349 44.7742L13.9157 45.3478L14.7349 44.7742ZM48.1235 21.3952L48.9427 20.8216L48.1235 21.3952ZM47.1226 27.072L46.549 26.2528L47.1226 27.072ZM29.5883 2.03046L30.1619 2.84961L29.5883 2.03046ZM35.2651 3.03142L34.4459 3.605L35.2651 3.03142ZM2.87737 20.7337L2.30379 19.9145L2.87737 20.7337ZM1.8764 26.4104L2.69555 25.8369L1.8764 26.4104ZM18.0006 38.7788C17.5482 39.0955 17.4383 39.7191 17.7551 40.1715C18.0718 40.6239 18.6954 40.7338 19.1478 40.4171L18.0006 38.7788ZM27.495 34.5723C27.9474 34.2555 28.0573 33.632 27.7405 33.1796C27.4238 32.7272 26.8002 32.6172 26.3478 32.934L27.495 34.5723ZM29.6867 30.5961C29.2343 30.9129 29.1243 31.5364 29.4411 31.9888C29.7579 32.4412 30.3814 32.5512 30.8338 32.2344L29.6867 30.5961ZM34.1727 29.8965C34.6251 29.5797 34.735 28.9562 34.4183 28.5038C34.1015 28.0514 33.4779 27.9414 33.0255 28.2582L34.1727 29.8965ZM4.99998 45.7089C4.44769 45.7089 3.99998 46.1566 3.99998 46.7089C3.99998 47.2612 4.44769 47.7089 4.99998 47.7089V45.7089ZM44.7914 47.7089C45.3437 47.7089 45.7914 47.2612 45.7914 46.7089C45.7914 46.1566 45.3437 45.7089 44.7914 45.7089V47.7089ZM3.45095 21.5528L30.1619 2.84961L29.0147 1.2113L2.30379 19.9145L3.45095 21.5528ZM34.4459 3.605L47.3044 21.9688L48.9427 20.8216L36.0842 2.45785L34.4459 3.605ZM46.549 26.2528L19.838 44.956L20.9852 46.5943L47.6961 27.8911L46.549 26.2528ZM15.554 44.2006L2.69555 25.8369L1.05725 26.984L13.9157 45.3478L15.554 44.2006ZM19.838 44.956C18.4464 45.9304 16.5284 45.5922 15.554 44.2006L13.9157 45.3478C15.5237 47.6442 18.6888 48.2023 20.9852 46.5943L19.838 44.956ZM47.3044 21.9688C48.2788 23.3604 47.9406 25.2784 46.549 26.2528L47.6961 27.8911C49.9925 26.2832 50.5507 23.118 48.9427 20.8216L47.3044 21.9688ZM30.1619 2.84961C31.5535 1.8752 33.4715 2.2134 34.4459 3.605L36.0842 2.45785C34.4763 0.161436 31.3111 -0.396661 29.0147 1.2113L30.1619 2.84961ZM2.30379 19.9145C0.00738299 21.5225 -0.550714 24.6876 1.05725 26.984L2.69555 25.8369C1.72115 24.4453 2.05935 22.5272 3.45095 21.5528L2.30379 19.9145ZM4.78788 30.5685L38.1766 7.18944L37.0294 5.55114L3.64073 28.9301L4.78788 30.5685ZM19.1478 40.4171L27.495 34.5723L26.3478 32.934L18.0006 38.7788L19.1478 40.4171ZM30.8338 32.2344L34.1727 29.8965L33.0255 28.2582L29.6867 30.5961L30.8338 32.2344ZM4.99998 47.7089H44.7914V45.7089H4.99998V47.7089Z" fill="#202632"/>
</svg>
