<svg width="80" height="80" viewBox="0 0 80 80" fill="none" xmlns="http://www.w3.org/2000/svg">
<circle cx="40" cy="40" r="40" fill="#EBEFF7"/>
<path d="M37.5017 20.9C38.9017 19.72 41.1617 19.72 42.5217 20.9L45.6817 23.6C46.2817 24.1 47.4217 24.52 48.2217 24.52H51.6217C53.7417 24.52 55.4817 26.26 55.4817 28.38V31.78C55.4817 32.58 55.9017 33.7 56.4017 34.3L59.1017 37.46C60.2817 38.86 60.2817 41.12 59.1017 42.48L56.4017 45.64C55.9017 46.24 55.4817 47.36 55.4817 48.16V51.56C55.4817 53.68 53.7417 55.42 51.6217 55.42H48.2217C47.4217 55.42 46.3017 55.84 45.7017 56.34L42.5417 59.04C41.1417 60.22 38.8817 60.22 37.5217 59.04L34.3617 56.34C33.7617 55.84 32.6217 55.42 31.8417 55.42H28.3417C26.2217 55.42 24.4817 53.68 24.4817 51.56V48.14C24.4817 47.36 24.0817 46.22 23.5817 45.64L20.8817 42.46C19.7217 41.08 19.7217 38.84 20.8817 37.46L23.5817 34.28C24.0817 33.68 24.4817 32.56 24.4817 31.78V28.4C24.4817 26.28 26.2217 24.54 28.3417 24.54H31.8017C32.6017 24.54 33.7217 24.12 34.3217 23.62L37.5017 20.9Z" stroke="#202632" stroke-width="1.8" stroke-linecap="round" stroke-linejoin="round"/>
<path d="M40 32.26V41.92" stroke="#202632" stroke-width="1.8" stroke-linecap="round" stroke-linejoin="round"/>
<path d="M39.9883 48H40.0062" stroke="#202632" stroke-width="2" stroke-linecap="round" stroke-linejoin="round"/>
</svg>
