<svg width="56" height="56" viewBox="0 0 56 56" fill="none" xmlns="http://www.w3.org/2000/svg">
<g clip-path="url(#clip0_331_10607)">
<path d="M28.0013 4.66663C15.1213 4.66663 4.66797 15.12 4.66797 28C4.66797 40.88 15.1213 51.3333 28.0013 51.3333C40.8813 51.3333 51.3346 40.88 51.3346 28C51.3346 15.12 40.8813 4.66663 28.0013 4.66663ZM28.0013 46.6666C17.7113 46.6666 9.33464 38.29 9.33464 28C9.33464 17.71 17.7113 9.33329 28.0013 9.33329C38.2913 9.33329 46.668 17.71 46.668 28C46.668 38.29 38.2913 46.6666 28.0013 46.6666ZM38.7113 17.6866L23.3346 33.0633L17.2913 27.0433L14.0013 30.3333L23.3346 39.6666L42.0013 21L38.7113 17.6866Z" fill="#45BF32"/>
</g>
<defs>
<clipPath id="clip0_331_10607">
<rect width="56" height="56" fill="white"/>
</clipPath>
</defs>
</svg>
