<svg width="56" height="56" viewBox="0 0 56 56" fill="none" xmlns="http://www.w3.org/2000/svg">
<g clip-path="url(#clip0_331_10637)">
<path d="M25.668 16.3334H30.3346V21.0001H25.668V16.3334ZM25.668 25.6667H30.3346V39.6668H25.668V25.6667ZM28.0013 4.66675C15.1213 4.66675 4.66797 15.1201 4.66797 28.0001C4.66797 40.8801 15.1213 51.3334 28.0013 51.3334C40.8813 51.3334 51.3346 40.8801 51.3346 28.0001C51.3346 15.1201 40.8813 4.66675 28.0013 4.66675ZM28.0013 46.6668C17.7113 46.6668 9.33464 38.2901 9.33464 28.0001C9.33464 17.7101 17.7113 9.33342 28.0013 9.33342C38.2913 9.33342 46.668 17.7101 46.668 28.0001C46.668 38.2901 38.2913 46.6668 28.0013 46.6668Z" fill="#2DB0A1"/>
</g>
<defs>
<clipPath id="clip0_331_10637">
<rect width="56" height="56" fill="white"/>
</clipPath>
</defs>
</svg>
