<svg width="224" height="32" viewBox="0 0 224 32" fill="none" xmlns="http://www.w3.org/2000/svg">
<path d="M5.87156 0C2.05505 0 0 2.03636 0 5.81818V30.5455C0 31.4764 0.52844 32 1.46789 32H4.40367C5.34312 32 5.87156 31.4764 5.87156 30.5455V21.8182C5.87156 20.8873 6.4 20.3636 7.33945 20.3636H10.2752C11.2147 20.3636 11.7431 20.8873 11.7431 21.8182V30.5455C11.7431 31.4764 12.2716 32 13.211 32H16.1468C17.0862 32 17.6147 31.4764 17.6147 30.5455V5.81818C17.6147 2.03636 15.5596 0 11.7431 0H5.87156ZM10.2752 5.81818C11.2147 5.81818 11.7431 6.34182 11.7431 7.27273V13.0909C11.7431 14.0218 11.2147 14.5455 10.2752 14.5455H7.33945C6.4 14.5455 5.87156 14.0218 5.87156 13.0909V7.27273C5.87156 6.34182 6.4 5.81818 7.33945 5.81818H10.2752Z" fill="#004A77"/>
<path d="M39.6101 26.1818C38.6706 26.1818 38.1422 25.6582 38.1422 24.7273V1.45454C38.1422 0.523637 37.6138 0 36.6743 0H33.7385C32.7991 0 32.2706 0.523637 32.2706 1.45454V26.1818C32.2706 29.9636 34.3257 32 38.1422 32H49.8853C50.8248 32 51.3532 31.4764 51.3532 30.5455V27.6364C51.3532 26.7055 50.8248 26.1818 49.8853 26.1818H39.6101Z" fill="#004A77"/>
<path d="M70.4128 0C66.5963 0 64.5413 2.03636 64.5413 5.81818V30.5455C64.5413 31.4764 65.0697 32 66.0092 32H68.945C69.8844 32 70.4128 31.4764 70.4128 30.5455V21.8182C70.4128 20.8873 70.9413 20.3636 71.8807 20.3636H74.8165C75.756 20.3636 76.2844 20.8873 76.2844 21.8182V30.5455C76.2844 31.4764 76.8128 32 77.7523 32H80.6881C81.6275 32 82.156 31.4764 82.156 30.5455V5.81818C82.156 2.03636 80.1009 0 76.2844 0H70.4128ZM74.8165 5.81818C75.756 5.81818 76.2844 6.34182 76.2844 7.27273V13.0909C76.2844 14.0218 75.756 14.5455 74.8165 14.5455H71.8807C70.9413 14.5455 70.4128 14.0218 70.4128 13.0909V7.27273C70.4128 6.34182 70.9413 5.81818 71.8807 5.81818H74.8165Z" fill="#004A77"/>
<path d="M114.427 1.45454C114.427 0.523637 113.898 0 112.959 0H96.8119C95.8725 0 95.344 0.523637 95.344 1.45454V4.36364C95.344 5.29454 95.8725 5.81818 96.8119 5.81818H100.511C101.45 5.81818 101.979 6.34182 101.979 7.27273V30.5455C101.979 31.4764 102.507 32 103.447 32H106.383C107.322 32 107.85 31.4764 107.85 30.5455V7.27273C107.85 6.34182 108.379 5.81818 109.318 5.81818H112.959C113.898 5.81818 114.427 5.29454 114.427 4.36364V1.45454Z" fill="#004A77"/>
<path d="M127.649 26.1818C127.649 29.9636 129.704 32 133.521 32H139.392C143.209 32 145.264 29.9636 145.264 26.1818V5.81818C145.264 2.03636 143.209 0 139.392 0H133.521C129.704 0 127.649 2.03636 127.649 5.81818V26.1818ZM137.924 5.76C138.864 5.76 139.392 6.28364 139.392 7.21454V24.7273C139.392 25.6582 138.864 26.1818 137.924 26.1818H134.989C134.049 26.1818 133.521 25.6582 133.521 24.7273V7.21454C133.521 6.28364 134.049 5.76 134.989 5.76H137.924Z" fill="#004A77"/>
<path d="M159.92 26.1818C159.92 29.9636 161.975 32 165.791 32H171.663C175.479 32 177.534 29.9636 177.534 26.1818V5.81818C177.534 2.03636 175.479 0 171.663 0H165.791C161.975 0 159.92 2.03636 159.92 5.81818V26.1818ZM170.195 5.76C171.134 5.76 171.663 6.28364 171.663 7.21454V24.7273C171.663 25.6582 171.134 26.1818 170.195 26.1818H167.259C166.32 26.1818 165.791 25.6582 165.791 24.7273V7.21454C165.791 6.28364 166.32 5.76 167.259 5.76H170.195Z" fill="#004A77"/>
<path d="M191.706 4.36364C191.706 1.95367 193.678 6.93581e-07 196.11 6.93581e-07H219.596C222.028 6.93581e-07 224 1.95367 224 4.36364V27.6364C224 30.0463 222.028 32 219.596 32H196.11C193.678 32 191.706 30.0463 191.706 27.6364V4.36364Z" fill="#FF6C5F"/>
<path d="M206.972 6.69091C206.409 6.69091 206.092 7.00509 206.092 7.56364V21.5273C206.092 22.0858 205.775 22.4 205.211 22.4H203.45C202.886 22.4 202.569 22.0858 202.569 21.5273V7.56364C202.569 7.00509 202.252 6.69091 201.688 6.69091H199.927C199.363 6.69091 199.046 7.00509 199.046 7.56364V22.4C199.046 24.6691 200.279 25.8909 202.569 25.8909H206.092C208.382 25.8909 209.615 24.6691 209.615 22.4V7.56364C209.615 7.00509 209.298 6.69091 208.734 6.69091H206.972Z" fill="white"/>
<path d="M212.772 25.0182C212.772 25.5767 213.089 25.8909 213.652 25.8909H215.414C215.977 25.8909 216.294 25.5767 216.294 25.0182V7.56364C216.294 7.00509 215.977 6.69091 215.414 6.69091H213.652C213.089 6.69091 212.772 7.00509 212.772 7.56364V25.0182Z" fill="white"/>
</svg>
